<svg width="17" height="13" viewBox="0 0 17 13" fill="none" xmlns="http://www.w3.org/2000/svg">
<g clip-path="url(#clip0_2_2826)">
<path fill-rule="evenodd" clip-rule="evenodd" d="M16.4298 2.03037C14.0439 3.15836 12.851 4.48372 12.851 6.00651C13.8679 6.11931 14.7088 6.5188 15.3738 7.20499C16.0387 7.89118 16.3712 8.68546 16.3712 9.58785C16.3712 10.5466 16.0485 11.355 15.4031 12.013C14.7577 12.671 13.9461 13 12.9683 13C11.8731 13 10.9246 12.5723 10.1228 11.7169C9.32096 10.8615 8.92005 9.82285 8.92005 8.60087C8.92005 4.93491 11.0517 2.06798 15.3151 0L16.4298 2.03037ZM8.00978 2.03037C5.60429 3.15836 4.40156 4.48372 4.40156 6.00651C5.43808 6.11931 6.28878 6.5188 6.95372 7.20499C7.61865 7.89118 7.95111 8.68546 7.95111 9.58785C7.95111 10.5466 7.62354 11.355 6.96838 12.013C6.31323 12.671 5.49674 13 4.5189 13C3.42372 13 2.48012 12.5723 1.68807 11.7169C0.89602 10.8615 0.5 9.82285 0.5 8.60087C0.5 4.93491 2.62188 2.06798 6.86571 0L8.00978 2.03037Z" fill="#1DB5BE"/>
</g>
<defs>
<clipPath id="clip0_2_2826">
<rect width="16" height="13" fill="white" transform="translate(0.5)"/>
</clipPath>
</defs>
</svg>
