<svg width="113" height="32" viewBox="0 0 113 32" fill="none" xmlns="http://www.w3.org/2000/svg">
<g clip-path="url(#clip0_2_2730)">
<path d="M12.629 5.29694V14.3233H4.40462V5.29694H0.5V26.8437H4.40462V18.1104H12.629V26.8437H16.5336V5.29694H12.629Z" fill="#33475B"/>
<path d="M29.0299 19.8786C29.0299 20.7422 28.6895 21.5703 28.0837 22.1809C27.4779 22.7915 26.6563 23.1346 25.7996 23.1346C24.9429 23.1346 24.1213 22.7915 23.5155 22.1809C22.9097 21.5703 22.5693 20.7422 22.5693 19.8786V10.6498H18.8656V19.8786C18.8656 21.7305 19.5954 23.5065 20.8946 24.8159C22.1937 26.1254 23.9557 26.861 25.7929 26.861C27.6301 26.861 29.3921 26.1254 30.6912 24.8159C31.9904 23.5065 32.7202 21.7305 32.7202 19.8786V10.6498H29.0299V19.8786Z" fill="#33475B"/>
<path d="M56.4715 11.6005C56.4715 9.70887 57.7131 9.10917 59.0733 9.10917C60.1695 9.10917 61.6177 9.9499 62.5647 10.97L64.9905 8.0891C63.7795 6.43849 61.3231 5.29694 59.3124 5.29694C55.2949 5.29694 52.389 7.66874 52.389 11.6005C52.389 18.8953 61.2351 16.5813 61.2351 20.6635C61.2351 21.9227 60.0222 23.0353 58.6333 23.0353C56.4428 23.0353 55.733 21.9555 54.7268 20.8139L52.035 23.635C53.7568 25.7658 55.8804 26.8475 58.4248 26.8475C62.2414 26.8475 65.3119 24.4468 65.3119 20.6943C65.3119 12.5955 56.4658 15.1119 56.4658 11.6005" fill="#33475B"/>
<path d="M111.197 23.4017C109.008 23.4017 108.387 22.4472 108.387 20.9855V14.5161H111.788V11.238H108.387V6.91284L104.631 8.61167V21.7896C104.631 25.1603 106.939 26.8591 110.103 26.8591C110.599 26.8682 111.095 26.8282 111.584 26.7395L112.5 23.34C112.087 23.3689 111.612 23.3978 111.197 23.3978" fill="#33475B"/>
<path d="M43.1274 10.7579C41.2928 10.7579 40.0129 11.2939 38.7752 12.5184V5.42615H35.0657V18.5713C35.0657 23.4923 38.5953 26.863 42.5612 26.863C46.9613 26.863 50.8315 23.4325 50.8315 18.8123C50.8315 14.25 47.2693 10.7598 43.1274 10.7598V10.7579ZM43.1045 23.1009C42.2721 23.1009 41.4583 22.8521 40.7662 22.3859C40.0741 21.9198 39.5346 21.2572 39.2161 20.4821C38.8975 19.7069 38.8142 18.8539 38.9766 18.031C39.139 17.2081 39.5398 16.4522 40.1284 15.8589C40.717 15.2656 41.467 14.8616 42.2834 14.6979C43.0998 14.5342 43.9461 14.6182 44.7151 14.9393C45.4842 15.2604 46.1415 15.8041 46.604 16.5018C47.0664 17.1994 47.3133 18.0196 47.3133 18.8586C47.3133 19.9837 46.8699 21.0628 46.0806 21.8583C45.2913 22.6539 44.2207 23.1009 43.1045 23.1009Z" fill="#33475B"/>
<path d="M83.4055 18.6157C83.4055 13.9878 79.543 10.5651 75.1353 10.5651C71.1694 10.5651 67.6398 13.9357 67.6398 18.8567V32.0096H71.3492V24.9077C72.5851 26.1302 73.8669 26.6682 75.6996 26.6682C79.8414 26.6682 83.4036 23.1799 83.4036 18.6157H83.4055ZM79.8931 18.5694C79.8931 19.4084 79.6463 20.2286 79.1838 20.9263C78.7213 21.6239 78.064 22.1676 77.2949 22.4887C76.5259 22.8098 75.6796 22.8938 74.8632 22.7301C74.0468 22.5664 73.2969 22.1624 72.7082 21.5691C72.1196 20.9758 71.7188 20.2199 71.5564 19.397C71.394 18.5741 71.4773 17.7211 71.7959 16.946C72.1144 16.1708 72.6539 15.5082 73.346 15.0421C74.0382 14.576 74.8519 14.3272 75.6843 14.3272C76.8006 14.3272 77.8711 14.7741 78.6604 15.5697C79.4497 16.3653 79.8931 17.4443 79.8931 18.5694Z" fill="#33475B"/>
<path d="M95.3893 10.3838V6.62751C95.8818 6.39556 96.2988 6.02739 96.5918 5.56585C96.8847 5.1043 97.0416 4.56838 97.0441 4.02046V3.93369C97.0441 3.16657 96.7418 2.43086 96.2036 1.88843C95.6655 1.34599 94.9356 1.04125 94.1745 1.04125H94.0884C93.3274 1.04125 92.5974 1.34599 92.0593 1.88843C91.5211 2.43086 91.2188 3.16657 91.2188 3.93369V4.02046C91.2213 4.56838 91.3782 5.1043 91.6712 5.56585C91.9641 6.02739 92.3811 6.39556 92.8736 6.62751V10.3838C91.4581 10.6021 90.125 11.1935 89.0092 12.0981L78.7894 4.07445C78.8618 3.80987 78.9003 3.53706 78.9042 3.26264C78.9054 2.61803 78.7168 1.98756 78.3624 1.45097C78.008 0.914387 77.5037 0.495796 76.9132 0.248144C76.3228 0.000492028 75.6727 -0.0650939 75.0453 0.0596818C74.4179 0.184458 73.8412 0.493989 73.3883 0.949125C72.9354 1.40426 72.6267 1.98455 72.501 2.6166C72.3754 3.24866 72.4385 3.90407 72.6825 4.49994C72.9264 5.09582 73.3402 5.60538 73.8715 5.96418C74.4028 6.32299 75.0277 6.51491 75.6673 6.51567C76.2265 6.51315 76.7753 6.36289 77.259 6.07988L87.3237 13.9724C86.4194 15.3491 85.9475 16.9686 85.9697 18.6196C85.9919 20.2706 86.5071 21.8766 87.4481 23.2282L84.3871 26.3134C84.1396 26.2338 83.8817 26.1915 83.6219 26.1881C83.0969 26.1885 82.5838 26.3457 82.1474 26.64C81.711 26.9342 81.371 27.3522 81.1702 27.8412C80.9695 28.3302 80.9171 28.8682 81.0196 29.3872C81.1221 29.9062 81.3749 30.3829 81.7462 30.7571C82.1174 31.1313 82.5904 31.3862 83.1053 31.4895C83.6202 31.5929 84.154 31.54 84.6391 31.3377C85.1242 31.1353 85.539 30.7926 85.8309 30.3527C86.1228 29.9129 86.2788 29.3957 86.2792 28.8665C86.2759 28.6046 86.234 28.3447 86.1548 28.0952L89.1833 25.0427C90.1708 25.8086 91.3191 26.3366 92.5403 26.5862C93.7615 26.8358 95.0231 26.8003 96.2286 26.4826C97.4341 26.1648 98.5515 25.5732 99.4951 24.7529C100.439 23.9327 101.184 22.9057 101.673 21.7505C102.162 20.5954 102.382 19.3427 102.317 18.0885C102.251 16.8343 101.902 15.6118 101.295 14.5147C100.689 13.4175 99.8414 12.4748 98.8177 11.7588C97.794 11.0428 96.6212 10.5725 95.3893 10.3838V10.3838ZM94.1343 22.7365C93.3059 22.7357 92.4964 22.4874 91.8079 22.023C91.1195 21.5586 90.5831 20.8989 90.2665 20.1273C89.9499 19.3557 89.8674 18.5069 90.0293 17.688C90.1913 16.8691 90.5904 16.117 91.1763 15.5267C91.7622 14.9365 92.5086 14.5345 93.321 14.3716C94.1335 14.2088 94.9757 14.2924 95.741 14.6118C96.5064 14.9313 97.1607 15.4722 97.6211 16.1664C98.0815 16.8605 98.3275 17.6766 98.3278 18.5116C98.3278 19.6316 97.8864 20.7057 97.1007 21.4977C96.315 22.2896 95.2493 22.7345 94.1382 22.7345" fill="#FF7A59"/>
</g>
<defs>
<clipPath id="clip0_2_2730">
<rect width="112" height="32" fill="white" transform="translate(0.5)"/>
</clipPath>
</defs>
</svg>
