<svg width="113" height="32" viewBox="0 0 113 32" fill="none" xmlns="http://www.w3.org/2000/svg">
<g clip-path="url(#clip0_2_2833)">
<path fill-rule="evenodd" clip-rule="evenodd" d="M24.9508 4.87952H8.73621V13.7962H16.7146C16.9988 13.7962 17.2294 14.0491 17.2294 14.3608V22.9905H25.4656V5.44519C25.4657 5.37096 25.4525 5.29742 25.4267 5.2288C25.4009 5.16017 25.363 5.0978 25.3152 5.04526C25.2673 4.99272 25.2105 4.95104 25.148 4.9226C25.0855 4.89416 25.0185 4.87952 24.9508 4.87952V4.87952Z" fill="#8E75FF"/>
<path opacity="0.405" fill-rule="evenodd" clip-rule="evenodd" d="M8.73535 4.87952V13.7962H1.12876C1.07766 13.7961 1.02773 13.7793 0.985316 13.748C0.942906 13.7168 0.909925 13.6724 0.890562 13.6205C0.8712 13.5686 0.866327 13.5116 0.876564 13.4567C0.886801 13.4018 0.911685 13.3514 0.948057 13.312L8.73535 4.87952ZM17.6681 31.4323C17.6318 31.4713 17.5859 31.4977 17.5361 31.5083C17.4862 31.5188 17.4346 31.5129 17.3878 31.4914C17.341 31.4699 17.301 31.4337 17.2728 31.3874C17.2446 31.3411 17.2296 31.2867 17.2295 31.231V22.9905H25.4657L17.6681 31.4313V31.4323Z" fill="#8E75FF"/>
<path opacity="0.405" d="M8.73535 13.7961H16.9725C17.1137 13.7961 17.2295 13.9221 17.2295 14.0779V22.9905H9.25112C9.11458 22.9905 8.98363 22.931 8.88708 22.8251C8.79053 22.7192 8.73629 22.5756 8.73629 22.4258V13.7961H8.73535Z" fill="#8E75FF"/>
<path fill-rule="evenodd" clip-rule="evenodd" d="M108.52 4.31689C108.98 4.8165 109.523 5.06527 110.15 5.06527C110.797 5.06527 111.35 4.8165 111.81 4.31689C112.27 3.81727 112.5 3.22889 112.5 2.54863C112.5 1.8694 112.27 1.27482 111.81 0.764887C111.596 0.518992 111.338 0.324145 111.053 0.192531C110.767 0.0609165 110.46 -0.00463237 110.15 -1.62222e-05C109.523 -1.62222e-05 108.98 0.254952 108.52 0.763855C108.06 1.27482 107.83 1.86837 107.83 2.54966C107.83 3.22889 108.06 3.81727 108.52 4.31689V4.31689ZM58.581 10.8325C58.581 10.8841 58.5415 10.9275 58.4935 10.9275H55.2605V17.5546C55.2605 18.1068 55.3885 18.5104 55.6426 18.7654C55.8967 19.0204 56.2695 19.1628 56.7589 19.1948C57.2069 19.2248 57.7527 19.2227 58.3975 19.1897L58.4887 19.1845C58.5005 19.1838 58.5123 19.1857 58.5233 19.1902C58.5344 19.1947 58.5445 19.2015 58.553 19.2104C58.5616 19.2193 58.5684 19.23 58.573 19.2419C58.5777 19.2538 58.5801 19.2666 58.58 19.2795V22.8211C58.5802 22.8446 58.5723 22.8674 58.5581 22.8849C58.5438 22.9024 58.5242 22.9136 58.5029 22.9161L58.4436 22.9233C55.9118 23.2155 54.1207 22.944 53.0723 22.1099C52.005 21.2604 51.4723 19.7419 51.4723 17.5546V10.9275H49.0026C48.9797 10.9275 48.9576 10.9175 48.9414 10.8997C48.9252 10.8818 48.916 10.8577 48.916 10.8325V7.07198C48.916 7.02037 48.9546 6.97702 49.0026 6.97702H51.4713V4.34785C51.4713 4.27147 51.5127 4.20334 51.5758 4.17237L55.1391 2.47224C55.1523 2.46567 55.1668 2.46285 55.1813 2.46402C55.1957 2.4652 55.2097 2.47033 55.2219 2.47897C55.234 2.4876 55.244 2.49944 55.251 2.51342C55.2579 2.52739 55.2615 2.54305 55.2615 2.55895V6.97702H58.4935C58.5405 6.97702 58.58 7.01934 58.58 7.07198V10.8325H58.581ZM65.4516 9.71766C65.8036 8.69779 66.3862 7.93289 67.1984 7.42295C67.9997 6.92257 68.9059 6.65934 69.828 6.65908C69.876 6.65908 69.9156 6.7014 69.9156 6.75508V11.0751C69.9155 11.0967 69.9114 11.1181 69.9034 11.1378C69.8953 11.1576 69.8836 11.1753 69.869 11.1897C69.8544 11.2042 69.8371 11.2152 69.8184 11.2219C69.7997 11.2287 69.7799 11.2311 69.7603 11.2289C68.6676 11.1215 67.6859 11.3827 66.8163 12.0113C65.9062 12.6689 65.4516 13.7631 65.4516 15.2929V22.8119C65.4516 22.8244 65.4493 22.8369 65.4449 22.8484C65.4405 22.86 65.434 22.8705 65.4259 22.8794C65.4177 22.8882 65.4081 22.8952 65.3975 22.8999C65.3869 22.9046 65.3755 22.907 65.364 22.9068H61.748C61.7251 22.9068 61.7031 22.8968 61.6868 22.879C61.6706 22.8612 61.6615 22.837 61.6615 22.8119V7.07095C61.6615 7.01934 61.7 6.97598 61.748 6.97598H65.364C65.4111 6.97598 65.4506 7.01831 65.4506 7.07095V9.7156L65.4516 9.71766ZM83.3678 6.97702C83.3564 6.97688 83.345 6.97924 83.3344 6.98395C83.3238 6.98866 83.3141 6.99563 83.306 7.00446C83.2978 7.0133 83.2914 7.02381 83.287 7.0354C83.2825 7.04699 83.2803 7.05943 83.2803 7.07198V8.85779C82.1452 7.30631 80.549 6.53108 78.4925 6.53108C76.5349 6.53108 74.8549 7.34347 73.4553 8.96824C72.0549 10.593 71.3546 12.5842 71.3546 14.9419C71.3546 17.2996 72.0549 19.2908 73.4553 20.9156C74.8549 22.5404 76.5349 23.3528 78.4925 23.3528C80.549 23.3528 82.1443 22.5775 83.2803 21.0271V22.8119C83.2803 22.8635 83.3198 22.9068 83.3678 22.9068H86.9829C87.0309 22.9068 87.0704 22.8645 87.0704 22.8119V7.07095C87.0704 7.05839 87.0681 7.04596 87.0637 7.03437C87.0593 7.02278 87.0528 7.01226 87.0447 7.00343C87.0366 6.9946 87.0269 6.98763 87.0163 6.98291C87.0057 6.9782 86.9943 6.97585 86.9829 6.97598H83.3678V6.97702ZM76.2902 18.1915C77.0535 19.0204 78.0219 19.4343 79.1984 19.4343C80.373 19.4343 81.3471 19.0142 82.1207 18.175C82.8944 17.3368 83.2803 16.2591 83.2803 14.9419C83.2803 13.6248 82.8944 12.5471 82.1207 11.7079C81.3471 10.8697 80.373 10.4495 79.1974 10.4495C78.0229 10.4495 77.0535 10.8697 76.2892 11.7089C75.5269 12.5471 75.1438 13.6248 75.1438 14.9419C75.1438 16.2591 75.5259 17.3419 76.2902 18.1915V18.1915ZM103.914 8.96824C102.513 7.34347 100.824 6.53108 98.8464 6.53108C96.7899 6.53108 95.204 7.30631 94.0878 8.85676V7.07198C94.0878 7.0468 94.0787 7.02264 94.0624 7.00483C94.0462 6.98702 94.0242 6.97702 94.0012 6.97702H90.3852C90.3622 6.97702 90.3402 6.98702 90.324 7.00483C90.3077 7.02264 90.2986 7.0468 90.2986 7.07198V29.183C90.2986 29.2356 90.3372 29.279 90.3852 29.279H94.0012C94.0483 29.279 94.0878 29.2356 94.0878 29.183V21.0271C95.204 22.5775 96.7899 23.3528 98.8464 23.3528C100.824 23.3528 102.513 22.5404 103.914 20.9156C105.313 19.2908 106.013 17.2996 106.013 14.9419C106.013 12.5842 105.313 10.593 103.914 8.96824V8.96824ZM95.2332 18.1915C95.9975 19.0204 96.9659 19.4343 98.1415 19.4343C99.316 19.4343 100.29 19.0142 101.064 18.175C101.837 17.3368 102.224 16.2591 102.224 14.9419C102.224 13.6248 101.837 12.5471 101.064 11.7079C100.29 10.8697 99.316 10.4495 98.1415 10.4495C96.9659 10.4495 95.9975 10.8697 95.2332 11.7089C94.4699 12.5471 94.0878 13.6248 94.0878 14.9419C94.0878 16.2591 94.4699 17.3419 95.2332 18.1915V18.1915ZM108.357 22.9068C108.334 22.9068 108.312 22.8968 108.296 22.879C108.28 22.8612 108.27 22.837 108.27 22.8119V7.07095C108.27 7.01934 108.309 6.97598 108.357 6.97598H111.973C112.021 6.97598 112.06 7.01831 112.06 7.07095V22.8129C112.06 22.8381 112.05 22.8622 112.034 22.88C112.018 22.8979 111.996 22.9079 111.973 22.9079H108.357V22.9068ZM40.7946 12.5368C40.2751 12.2715 40.0163 11.9257 40.0163 11.5014C40.0163 11.0978 40.1772 10.7788 40.501 10.5455C40.8238 10.3122 41.2304 10.1946 41.7198 10.1946C42.6582 10.1946 43.3669 10.592 43.8469 11.3858C43.8629 11.4127 43.887 11.4327 43.915 11.4421C43.9431 11.4515 43.9732 11.4499 44.0003 11.4374L47.1984 9.90244C47.2095 9.897 47.2193 9.88907 47.2274 9.87918C47.2355 9.86928 47.2416 9.85763 47.2454 9.84498C47.2491 9.83233 47.2503 9.81896 47.2491 9.80574C47.2478 9.79253 47.244 9.77975 47.2379 9.76824C47.2011 9.70094 47.1634 9.63418 47.125 9.56799C46.5782 8.63379 45.8695 7.93702 44.98 7.40747C44.0012 6.82321 42.9142 6.53108 41.7198 6.53108C40.133 6.53108 38.8069 6.98218 37.7386 7.8854C36.6723 8.7876 36.1386 10.0253 36.1386 11.5964C36.1386 12.6379 36.3984 13.503 36.917 14.1935C37.4182 14.8696 38.0711 15.3911 38.8116 15.7068C39.5551 16.0248 40.2996 16.2911 41.044 16.5027C41.7876 16.7153 42.42 16.9548 42.9386 17.2201C43.4572 17.4854 43.717 17.8302 43.717 18.2555C43.717 19.169 43.0412 19.6253 41.6906 19.6253C40.404 19.6253 39.5127 19.1091 39.0167 18.079C38.9968 18.0355 38.9626 18.0021 38.921 17.9854C38.8793 17.9687 38.8335 17.97 38.7927 17.9891L35.604 19.5221C35.5934 19.5272 35.5838 19.5346 35.5758 19.5438C35.5679 19.5531 35.5617 19.564 35.5577 19.576C35.5536 19.5879 35.5518 19.6006 35.5523 19.6134C35.5529 19.6261 35.5557 19.6386 35.5607 19.65L35.5965 19.7295C36.7109 22.145 38.7419 23.3528 41.6906 23.3528C43.3744 23.3528 44.7796 22.912 45.9052 22.0315C47.0318 21.1489 47.5946 19.8906 47.5946 18.2555C47.5946 17.1716 47.3349 16.2694 46.8163 15.5468C46.3274 14.8495 45.6714 14.3149 44.9217 14.0026C44.192 13.6995 43.4465 13.4441 42.6892 13.2377C41.9447 13.0353 41.3132 12.802 40.7946 12.5357V12.5368Z" fill="#1D1B84"/>
</g>
<defs>
<clipPath id="clip0_2_2833">
<rect width="112" height="32" fill="white" transform="translate(0.5)"/>
</clipPath>
</defs>
</svg>
