<svg width="113" height="32" viewBox="0 0 113 32" fill="none" xmlns="http://www.w3.org/2000/svg">
<g clip-path="url(#clip0_2_2823)">
<path d="M32.6062 22.6792C32.4305 22.2892 32.2658 21.8792 32.0901 21.5292L31.2776 19.8592L31.2446 19.8292C28.829 15.0292 26.2486 10.1492 23.5144 5.34921L23.4046 5.14921C23.1301 4.67921 22.8556 4.15921 22.5701 3.67921C22.2188 3.10921 21.8784 2.49921 21.3184 1.91921C20.7725 1.31234 20.0855 0.8234 19.307 0.487667C18.5285 0.151934 17.6778 -0.0222168 16.8164 -0.0222168C15.955 -0.0222168 15.1044 0.151934 14.3258 0.487667C13.5473 0.8234 12.8603 1.31234 12.3144 1.91921C11.7984 2.49921 11.4141 3.10921 11.0627 3.67921C10.7882 4.19921 10.5137 4.70921 10.2282 5.17921L10.1184 5.37921C7.42818 10.1792 4.80386 15.0592 2.38818 19.8592L2.32229 19.9192C2.08072 20.4392 1.79523 20.9792 1.52072 21.5592C1.34504 21.9092 1.16935 22.2892 0.993666 22.7092C0.519349 23.809 0.367884 25.0024 0.5542 26.1717C0.740516 27.341 1.25818 28.446 2.05618 29.3776C2.85417 30.3093 3.90496 31.0355 5.10497 31.4847C6.30498 31.9338 7.61281 32.0905 8.89955 31.9392C10.1332 31.7913 11.321 31.4171 12.3913 30.8392C13.8188 30.1092 15.1913 29.0492 16.7286 27.5192C18.2658 29.0492 19.6713 30.1092 21.0658 30.8492C22.4069 31.5661 23.9255 31.9617 25.4799 31.9992C27.28 32.006 29.022 31.4195 30.3843 30.3479C31.7466 29.2764 32.6372 27.7921 32.8917 26.1692C33.1858 25.003 33.0863 23.7831 32.6062 22.6692V22.6792ZM16.8384 24.3392C14.9497 22.1392 13.7199 20.1192 13.3027 18.3892C13.1298 17.7481 13.0925 17.083 13.1929 16.4292C13.2697 15.9192 13.4784 15.4692 13.7639 15.0892C14.4227 14.2192 15.5756 13.6792 16.8384 13.6792C17.438 13.6625 18.0329 13.7817 18.5695 14.0261C19.1061 14.2704 19.5677 14.6323 19.9129 15.0792C20.1984 15.4792 20.407 15.9192 20.4729 16.4292C20.5827 17.0092 20.5388 17.6792 20.3631 18.3892C19.9458 20.0892 18.716 22.1292 16.8384 24.3392ZM30.8274 25.8192C30.7026 26.6432 30.343 27.423 29.7843 28.0809C29.2256 28.7389 28.4873 29.252 27.6431 29.5692C26.8086 29.8892 25.8862 29.9792 24.9858 29.8892C24.1074 29.7892 23.229 29.5292 22.3286 29.0492C20.8336 28.2077 19.4893 27.1622 18.3427 25.9492C20.6486 23.3492 22.0431 20.9792 22.5701 18.8692C22.8227 17.8692 22.8556 16.9692 22.7458 16.1392C22.6087 15.3525 22.2866 14.602 21.8015 13.9392C21.2477 13.2205 20.5084 12.6367 19.6487 12.2391C18.789 11.8415 17.8353 11.6424 16.8713 11.6592C14.8399 11.6592 13.0282 12.5192 11.9301 13.9292C11.4358 14.5904 11.1164 15.3468 10.9968 16.1392C10.8541 16.9792 10.887 17.9092 11.1725 18.8692C11.6995 20.9792 13.127 23.3792 15.3999 25.9692C14.2728 27.2054 12.9254 28.2601 11.4141 29.0892C10.5027 29.5692 9.63523 29.8192 8.7568 29.9192C7.39071 30.0786 6.01077 29.7404 4.91692 28.9783C3.82306 28.2162 3.10372 27.0917 2.91523 25.8492C2.80543 25.0492 2.88229 24.2492 3.23367 23.3492C3.34347 23.0292 3.50818 22.7092 3.68386 22.3292C3.92543 21.8092 4.21092 21.2692 4.48543 20.7292L4.52935 20.6592C6.90112 15.8892 9.49249 11.0192 12.1827 6.24921L12.2925 6.04921C12.567 5.56921 12.8415 5.05921 13.127 4.57921C13.4125 4.06921 13.7199 3.57921 14.1152 3.17921C14.4574 2.80723 14.8849 2.50808 15.3678 2.30283C15.8506 2.09757 16.3769 1.9912 16.9097 1.9912C17.4426 1.9912 17.9689 2.09757 18.4517 2.30283C18.9345 2.50808 19.3621 2.80723 19.7043 3.17921C20.0886 3.57921 20.407 4.06921 20.6925 4.57921C20.967 5.05921 21.2415 5.57921 21.527 6.04921L21.6368 6.24921C24.316 11.0192 26.9074 15.8892 29.3231 20.6592L29.356 20.6892C29.6415 21.2092 29.8831 21.7892 30.1576 22.2892C30.3333 22.6792 30.509 22.9892 30.6188 23.3192C30.8274 24.2192 30.9372 25.0192 30.8274 25.8192V25.8192ZM46.1121 24.1192C45.2847 24.1302 44.4652 23.9715 43.7143 23.6547C42.9635 23.3379 42.3006 22.8712 41.7748 22.2892C40.5934 21.0492 39.9664 19.4503 40.018 17.8092C39.9999 16.1324 40.6472 14.5061 41.8407 13.2292C42.3928 12.6398 43.0801 12.1678 43.8541 11.8465C44.6281 11.5251 45.4701 11.3622 46.3207 11.3692C47.1211 11.3493 47.9139 11.515 48.6246 11.8509C49.3353 12.1868 49.9406 12.6817 50.3835 13.2892L50.4933 11.7192H53.6995V23.7992H50.4823L50.3725 22.0392C49.9159 22.6879 49.2848 23.2195 48.5391 23.5835C47.7935 23.9476 46.958 24.132 46.1121 24.1192V24.1192ZM46.9466 21.2392C47.5835 21.2392 48.1435 21.0792 48.6705 20.7892C49.1537 20.4692 49.549 20.0492 49.8564 19.5392C50.1309 19.0292 50.2737 18.4192 50.2737 17.7392C50.3165 17.1486 50.1902 16.558 49.9073 16.0251C49.6244 15.4923 49.1944 15.0354 48.6595 14.6992C48.1456 14.4076 47.5522 14.253 46.9466 14.253C46.341 14.253 45.7476 14.4076 45.2337 14.6992C44.7505 15.0192 44.3552 15.4392 44.0478 15.9492C43.7574 16.5117 43.6146 17.1279 43.6305 17.7492C43.5877 18.3398 43.714 18.9304 43.9969 19.4633C44.2798 19.9962 44.7097 20.453 45.2446 20.7892C45.7607 21.0792 46.3207 21.2392 46.9466 21.2392ZM59.1897 8.45921C59.1897 8.80921 59.1239 9.12921 58.9482 9.38921C58.7725 9.63921 58.5309 9.86921 58.2125 10.0292C57.8941 10.1892 57.5537 10.2492 57.2023 10.2492C56.8509 10.2492 56.4995 10.1892 56.1811 10.0292C55.88 9.87652 55.6267 9.6562 55.4454 9.38921C55.2754 9.10434 55.192 8.78327 55.2039 8.45921C55.2039 8.09921 55.2807 7.77921 55.4454 7.52921C55.6211 7.22921 55.8737 7.04921 56.1811 6.88921C56.4995 6.72921 56.8399 6.65921 57.2023 6.65921C57.5518 6.65188 57.8974 6.72727 58.2054 6.87801C58.5133 7.02875 58.773 7.24968 58.9592 7.51921C59.119 7.81076 59.1981 8.13345 59.1897 8.45921V8.45921ZM55.4564 23.7592V11.6992H58.9482V23.7792H55.4454L55.4564 23.7592ZM68.2815 14.8592V14.8992C68.1168 14.8292 67.8972 14.7992 67.7325 14.7692C67.5129 14.7292 67.3372 14.7292 67.1286 14.7292C66.1513 14.7292 65.4156 14.9892 64.9325 15.5292C64.4054 16.0792 64.1639 16.8492 64.1639 17.8392V23.7692H60.6611V11.6892H63.8784L63.9882 13.5192C64.3395 12.8792 64.7568 12.3992 65.3497 12.0392C65.9395 11.6894 66.6339 11.5147 67.3372 11.5392C67.5897 11.5392 67.8313 11.5592 68.0399 11.5992C68.1497 11.6292 68.2156 11.6292 68.2815 11.6592V14.8592V14.8592ZM69.687 23.7592V6.73921H73.1788V13.2392C73.6729 12.6592 74.2329 12.2092 74.9356 11.8592C76.0482 11.3624 77.312 11.2215 78.5233 11.4592C79.7345 11.6969 80.8225 12.2993 81.6117 13.1692C82.7957 14.4118 83.4229 16.0147 83.3686 17.6592C83.3866 19.336 82.7394 20.9624 81.5458 22.2392C80.9937 22.8286 80.3065 23.3006 79.5324 23.6219C78.7584 23.9433 77.9165 24.1062 77.0658 24.0992C76.2654 24.1192 75.4726 23.9534 74.7619 23.6175C74.0512 23.2817 73.446 22.7867 73.0031 22.1792L72.8933 23.7492L69.687 23.7792V23.7592ZM76.4399 21.2392C77.0658 21.2392 77.6258 21.0792 78.1529 20.7892C78.636 20.4692 79.0313 20.0492 79.3388 19.5392C79.6243 19.0292 79.756 18.4192 79.756 17.7392C79.756 17.0692 79.6243 16.4592 79.3388 15.9492C79.0504 15.4574 78.6453 15.0304 78.1529 14.6992C77.6389 14.4076 77.0455 14.253 76.4399 14.253C75.8344 14.253 75.241 14.4076 74.727 14.6992C74.2329 15.0192 73.8486 15.4392 73.5301 15.9492C73.2398 16.5117 73.0969 17.1279 73.1129 17.7492C73.0701 18.3398 73.1963 18.9304 73.4792 19.4633C73.7622 19.9962 74.1921 20.453 74.727 20.7892C75.2431 21.0792 75.8031 21.2392 76.4399 21.2392ZM84.6862 23.7692V11.6892H87.9035L88.0133 13.2592C88.4176 12.6574 88.9911 12.1649 89.6745 11.8326C90.3578 11.5003 91.1263 11.3403 91.9003 11.3692C92.7855 11.3553 93.6554 11.5793 94.4015 12.0133C95.1475 12.4473 95.7365 13.072 96.0948 13.8092C96.4792 14.5692 96.6878 15.5092 96.6878 16.5592V23.7992H93.185V16.9792C93.185 16.1392 92.9764 15.4792 92.5591 14.9892C92.1419 14.5092 91.5709 14.2492 90.8462 14.2492C90.3192 14.2492 89.858 14.3492 89.4517 14.5692C89.0674 14.7992 88.749 15.0892 88.5074 15.4992C88.2631 15.9137 88.142 16.379 88.156 16.8492V23.7692H84.6862V23.7692ZM98.4337 23.7692V6.72921H101.936V13.2292C102.411 12.646 103.028 12.1715 103.739 11.8434C104.45 11.5153 105.235 11.3427 106.032 11.3392C106.86 11.3282 107.679 11.487 108.43 11.8038C109.181 12.1206 109.844 12.5872 110.369 13.1692C111.545 14.4117 112.168 16.0098 112.115 17.6492C112.134 19.3262 111.487 20.9528 110.292 22.2292C109.74 22.8186 109.053 23.2906 108.279 23.6119C107.505 23.9333 106.663 24.0962 105.812 24.0892C105.012 24.1092 104.219 23.9434 103.509 23.6075C102.798 23.2717 102.193 22.7767 101.75 22.1692L101.651 23.7392L98.4337 23.7692V23.7692ZM105.22 21.2392C105.856 21.2392 106.416 21.0792 106.932 20.7892C107.427 20.4692 107.811 20.0492 108.129 19.5392C108.404 19.0292 108.547 18.4192 108.547 17.7392C108.589 17.1486 108.463 16.558 108.18 16.0251C107.897 15.4923 107.467 15.0354 106.932 14.6992C106.419 14.4076 105.825 14.253 105.22 14.253C104.614 14.253 104.021 14.4076 103.507 14.6992C103.023 15.0192 102.628 15.4392 102.321 15.9492C102.014 16.5066 101.871 17.1265 101.903 17.7492C101.861 18.3398 101.987 18.9304 102.27 19.4633C102.553 19.9962 102.983 20.453 103.518 20.7892C104.034 21.0792 104.561 21.2392 105.22 21.2392Z" fill="#FF385C"/>
</g>
<defs>
<clipPath id="clip0_2_2823">
<rect width="112" height="32" fill="white" transform="translate(0.5)"/>
</clipPath>
</defs>
</svg>
